# xmcd
#
# Track frame offsets:
#	150
#	26595
#	46947
#	68982
#	84240
#	100585
#	114715
#	135037
#	154312
#	170590
#
# Disc length: 2514 seconds
#
# Revision: 1
# Processed by: cddbd v1.5.2PL0 Copyright (c) Steve Scherf et al.
# Submitted via: EZCDAudioConverter 8.0.2.1
#
DISCID=7509d00a
DTITLE=Jo Marcel - Đỉnh Tuyết Cao
DYEAR=1989
DGENRE=Miscellaneous
TTITLE0=Meddly (Chia ly)
TTITLE1=What's Now My Love (Giờ còn chi đâu)
TTITLE2=J'ai Envie (Anh ước mong)
TTITLE3=Les Neiges du Killmanjaro (Đỉnh Tuyết Cao)
TTITLE4=Put Your Head On My Shoulder (Tựa vai anh)
TTITLE5=Oh! Carol (Hỡi em yêu)
TTITLE6=Merci, Cherie (Cảm ơn em)
TTITLE7=Quando Quando (Khi nào đây)
TTITLE8=California Dreaming (Giấc mơ Cali)
TTITLE9=Tình yêu thủy thủ
EXTD=
EXTT0=
EXTT1=
EXTT2=
EXTT3=
EXTT4=
EXTT5=
EXTT6=
EXTT7=
EXTT8=
EXTT9=
PLAYORDER=
